<?xml version="1.0"?>
<!DOCTYPE svg PUBLIC '-//W3C//DTD SVG 1.1//EN' 'http://www.w3.org/Graphics/SVG/1.1/DTD/svg11.dtd'>
  <!-- This work is licensed under a 
    <a rel="license" href="http://creativecommons.org/licenses/by/4.0/">Creative Commons Attribution 4.0 International License</a>. 
    Author: Sergei Kokota
    Available: https://icon-icons.com/pt/icone/pagamento-sacola-de-compras/73868
  -->
<svg enable-background="new 0 0 128 128" id="Слой_1" version="1.1" viewBox="0 0 128 128" xml:space="preserve" xmlns="http://www.w3.org/2000/svg" xmlns:xlink="http://www.w3.org/1999/xlink">
  <g>
    <g>
      <g>
        <path d="M112.9,27V7.4c0-1.9-1.5-3.4-3.4-3.4l-91,0c-1.9,0-3.4,1.5-3.4,3.4V27l-5.5,4.9c-0.5,0.5-0.9,1.2-0.9,1.9     v0c0,1.4,1.1,2.6,2.6,2.6h105.4c1.4,0,2.6-1.1,2.6-2.6v0c0-0.7-0.3-1.4-0.9-1.9L112.9,27z" fill="#FFFFFF" />
      </g>
      <g>
        <path d="M8.7,35.3V109c0,8.3,6.7,15,15,15h80.6c8.3,0,15-6.7,15-15V35.3c0-1.4-1.1-2.6-2.6-2.6H11.3     C9.9,32.7,8.7,33.9,8.7,35.3z" fill="#4D4F51" />
      </g>
      <g>
        <path d="M8.7,35.3V109c0,8.3,6.7,15,15,15h80.6c8.3,0,15-6.7,15-15V35.3c0-1.4-1.1-2.6-2.6-2.6H11.3     C9.9,32.7,8.7,33.9,8.7,35.3z" fill="#C27DB5" />
      </g>
      <path d="M120.5,33.9c0-1.1-0.5-2.1-1.3-2.9l-5.1-4.5v-19c0-2.6-2.1-4.7-4.7-4.7h-91c-2.6,0-4.7,2.1-4.7,4.7v19    L8.7,31c-0.8,0.7-1.3,1.8-1.3,2.9V109c0,9,7.3,16.2,16.2,16.2h80.6c9,0,16.2-7.3,16.2-16.2V33.9z M15.9,28    c0.3-0.2,0.4-0.6,0.4-0.9V7.4c0-1.2,1-2.2,2.2-2.2h91c1.2,0,2.2,1,2.2,2.2V27c0,0.4,0.2,0.7,0.4,0.9l3.9,3.5H12L15.9,28z M118,109    c0,7.6-6.2,13.8-13.8,13.8H23.7c-7.6,0-13.8-6.2-13.8-13.8V35.3c0-0.7,0.6-1.3,1.3-1.3h105.4c0.7,0,1.3,0.6,1.3,1.3V109z" fill="#62355C" />
      <g>
        <circle cx="38.2" cy="49.4" fill="#62355C" r="6.1" />
      </g>
      <g>
        <circle cx="89.8" cy="49.4" fill="#62355C" r="6.1" />
      </g>
      <g>
        <path d="M15.1,27l12.8-11.3L18,6.6c-1.1-1-2.9-0.2-2.9,1.3V27z" fill="#C27DB5" />
      </g>
      <g>
        <path d="M15.1,28.3c-0.2,0-0.3,0-0.5-0.1c-0.4-0.2-0.7-0.6-0.7-1.1V7.6c0-1.6,1.3-2.8,2.8-2.8     c0.7,0,1.4,0.3,1.9,0.7l10.1,9.3c0.3,0.2,0.4,0.6,0.4,0.9c0,0.4-0.2,0.7-0.4,0.9L15.9,28C15.7,28.2,15.4,28.3,15.1,28.3z      M16.7,7.2c-0.1,0-0.3,0.1-0.3,0.3v16.7l9.6-8.6l-9.1-8.3C16.8,7.3,16.8,7.2,16.7,7.2z" fill="#62355C" />
      </g>
      <g>
        <path d="M112.9,7.9V27l-12.8-11.3l9.9-9.1C111.1,5.6,112.9,6.4,112.9,7.9z" fill="#C27DB5" />
      </g>
      <g>
        <path d="M112.9,28.3c-0.3,0-0.6-0.1-0.8-0.3L99.3,16.6c-0.3-0.2-0.4-0.6-0.4-0.9c0-0.4,0.1-0.7,0.4-0.9l9.9-9.1     c0.6-0.5,1.3-0.8,2-0.8c1.6,0,3,1.3,3,3V27c0,0.5-0.3,0.9-0.7,1.1C113.3,28.2,113.1,28.3,112.9,28.3z M102,15.7l9.6,8.6V7.9     c0-0.3-0.3-0.5-0.5-0.5c-0.1,0-0.2,0-0.3,0.1L102,15.7z" fill="#62355C" />
      </g>
      <g>
        <path d="M27.9,34H15.5c-1.6,0-3-1-3.6-2.5c-0.6-1.5-0.2-3.1,1-4.2L27,14.8c0.4-0.3,0.9-0.4,1.3-0.2     c0.4,0.2,0.7,0.6,0.7,1.1v17C29.1,33.4,28.5,34,27.9,34z M26.6,18.5l-12,10.7c-0.6,0.6-0.4,1.3-0.4,1.5s0.4,0.8,1.2,0.8h11.1     V18.5z" fill="#62355C" />
      </g>
      <g>
        <path d="M112.5,34h-12.4c-0.7,0-1.2-0.6-1.2-1.2v-17c0-0.5,0.3-0.9,0.7-1.1c0.4-0.2,1-0.1,1.3,0.2l14.1,12.5     c1.2,1.1,1.6,2.7,1,4.2C115.5,33,114.1,34,112.5,34z M101.4,31.5h11.1c0.8,0,1.2-0.6,1.2-0.8s0.3-0.9-0.4-1.5l-12-10.7V31.5z" fill="#62355C" />
      </g>
    </g>
    <g>
      <path d="M64,94.4c-15.6,0-28.3-12.7-28.3-28.3V49.2c0-1.4,1.1-2.5,2.5-2.5s2.5,1.1,2.5,2.5v16.9    C40.7,79,51.1,89.4,64,89.4S87.3,79,87.3,66.1V49.2c0-1.4,1.1-2.5,2.5-2.5s2.5,1.1,2.5,2.5v16.9C92.3,81.7,79.6,94.4,64,94.4z" fill="#F1F7F2" />
    </g>
  </g>
</svg>