<?xml version="1.0" standalone="no"?>
<!DOCTYPE svg PUBLIC "-//W3C//DTD SVG 20010904//EN"
 "http://www.w3.org/TR/2001/REC-SVG-20010904/DTD/svg10.dtd">
<svg version="1.0" xmlns="http://www.w3.org/2000/svg"
 width="700.000000pt" height="700.000000pt" viewBox="0 0 700.000000 700.000000"
 preserveAspectRatio="xMidYMid meet">
<metadata>
Created by potrace 1.11, written by Peter Selinger 2001-2013
</metadata>
<g transform="translate(0.000000,700.000000) scale(0.100000,-0.100000)"
fill="#000000" stroke="none">
<path d="M922 6831 c-65 -23 -117 -70 -148 -136 l-24 -50 0 -546 0 -547 -144
-128 c-162 -146 -181 -169 -196 -239 -7 -35 -10 -690 -8 -2160 l3 -2110 23
-85 c86 -321 331 -567 652 -652 l85 -23 2330 0 2330 0 85 23 c170 45 350 154
451 273 93 110 139 193 185 329 l29 85 5 2160 5 2160 -23 52 c-19 42 -47 73
-167 178 l-145 128 0 506 c0 324 -4 529 -11 566 -14 79 -39 125 -91 169 -83
71 128 66 -2657 66 -2415 -1 -2518 -1 -2569 -19z m5066 -120 c-1 -5 -129 -125
-283 -267 -154 -141 -283 -262 -287 -268 -4 -6 -8 -210 -8 -453 l0 -443 -1910
0 -1910 0 0 443 c0 243 -4 447 -8 453 -4 6 -133 127 -287 268 -154 142 -281
262 -283 267 -2 5 1013 9 2488 9 1542 0 2490 -4 2488 -9z m-4538 -1081 l0
-350 -309 0 c-177 0 -321 4 -335 10 -22 8 -26 16 -26 47 0 21 4 44 8 51 8 11
653 591 660 592 1 0 2 -157 2 -350z m4445 42 c299 -268 320 -290 323 -324 6
-67 1 -68 -360 -68 l-318 0 0 350 c0 331 1 350 18 340 9 -5 161 -139 337 -298z
m-3740 -1244 c14 -6 34 -25 44 -42 18 -29 20 -63 24 -586 3 -472 6 -568 21
-640 55 -275 177 -501 370 -688 180 -174 387 -284 636 -338 119 -26 381 -26
500 0 245 53 457 165 634 336 193 187 306 393 368 672 19 86 21 135 25 653 5
526 6 562 24 591 23 37 57 54 110 54 58 0 97 -24 120 -73 17 -39 19 -72 19
-517 0 -620 -10 -729 -87 -960 -103 -311 -327 -603 -603 -788 -107 -71 -264
-148 -383 -186 -166 -55 -277 -71 -477 -71 -200 0 -311 16 -477 71 -458 149
-834 520 -986 974 -78 231 -89 361 -85 990 3 447 4 477 22 503 10 15 31 34 45
42 32 17 101 19 136 3z"/>
</g>
</svg>
