<?xml version="1.0"?>
<svg data-name="Your Icons" id="Your_Icons" viewBox="0 0 48 48" xmlns="http://www.w3.org/2000/svg">
  <defs>
    <style>.cls-1{fill:#939598;}.cls-2{fill:#fbb040;}.cls-3{fill:#fff;}</style>
  </defs>
  <!-- This work is licensed under a 
    <a rel="license" href="http://creativecommons.org/licenses/by/4.0/">Creative Commons Attribution 4.0 International License</a>. 
    Author: kerismaker
    Available: https://icon-icons.com/pt/icone/pagamento-sacola-de-compras/73868
  -->
  <title />
  <path class="cls-1" d="M38.72,17.6A4.07,4.07,0,0,0,34.63,14H33V12a8,8,0,0,0-16,0v2H15.37a4.07,4.07,0,0,0-4.09,3.6L10,29.73l-.36,3.51a6,6,0,1,1-.45,4.37l-.2,2a3.89,3.89,0,0,0,.38,2.12A8,8,0,0,0,15,44H36.89A4,4,0,0,0,41,39.6ZM19,12a6,6,0,0,1,12,0v2H19ZM38.49,41.3a2.13,2.13,0,0,1-1.6.7H20.29A8,8,0,0,0,22,40a.93.93,0,0,0,.24,0H35a1,1,0,0,0,0-2H22.74A8.24,8.24,0,0,0,23,36a8,8,0,0,0-8-8,7.9,7.9,0,0,0-2.83.52l1.1-10.72a2.07,2.07,0,0,1,2.1-1.8H17v2.89a1.5,1.5,0,1,0,2,0V16H31v2.89a1.5,1.5,0,1,0,2,0V16h1.63a2.07,2.07,0,0,1,2.1,1.8L39,39.8A1.9,1.9,0,0,1,38.49,41.3Z" />
  <circle class="cls-2" cx="15" cy="36" r="8" />
  <path class="cls-3" d="M15,32a1,1,0,0,0-1,1v3a1,1,0,0,0,2,0V33A1,1,0,0,0,15,32Z" />
  <circle class="cls-3" cx="15" cy="39" r="1" />
</svg>