<svg width="28" height="28" viewBox="0 0 28 28" fill="none" xmlns="http://www.w3.org/2000/svg">
  <linearGradient id="MyGradient">
    <stop offset="0%" stop-color="#2980B9" />
    <stop offset="100%" stop-color="#BFDBFE" />
  </linearGradient>
  <path id="Vector" d="M8.4 22.4C6.86 22.4 5.614 23.66 5.614 25.2C5.614 26.74 6.86 28 8.4 28C9.94 28 11.2 26.74 11.2 25.2C11.2 23.66 9.94 22.4 8.4 22.4ZM0 0V2.8H2.8L7.84 13.426L5.95 16.856C5.726 17.248 5.6 17.71 5.6 18.2C5.6 19.74 6.86 21 8.4 21H25.2V18.2H8.988C8.792 18.2 8.638 18.046 8.638 17.85L8.68 17.682L9.94 15.4H20.37C21.42 15.4 22.344 14.826 22.82 13.958L27.832 4.872C27.944 4.676 28 4.438 28 4.2C28 3.43 27.37 2.8 26.6 2.8H5.894L4.578 0H0ZM22.4 22.4C20.86 22.4 19.614 23.66 19.614 25.2C19.614 26.74 20.86 28 22.4 28C23.94 28 25.2 26.74 25.2 25.2C25.2 23.66 23.94 22.4 22.4 22.4Z" fill="#8000FF" />
</svg>
